<svg width="395" height="665" viewBox="0 0 395 665" fill="none" xmlns="http://www.w3.org/2000/svg">
<path d="M139.111 647.209C137.898 647.209 136.634 647.085 135.317 646.822C50.2061 629.861 -9.31568 552.816 1.20465 470.768C6.11025 432.512 26.9855 400.422 46.4452 367.425C56.2564 350.724 64.7591 333.866 70.182 315.409C75.7967 296.334 79.2571 276.692 86.0159 257.898C97.5168 225.883 121.854 193.174 159.191 186.057C163.691 185.199 168.138 184.789 172.502 184.789C203.461 184.789 230.241 205.421 242.804 232.356C257.903 264.757 254.66 301.152 251.171 335.464C247.056 375.882 241.66 416.298 233.429 456.178C225.062 496.8 213.643 536.963 197.537 575.474C188.788 596.431 176.17 632.957 151.26 641.822C148.355 645.028 144.205 647.209 139.111 647.209Z" fill="#FFEAE8" fill-opacity="0.5"/>
<path d="M200.671 602.287C197.259 599.705 193.779 597.026 189.89 595.101C187.682 594.01 185.227 593.142 182.695 593.304C177.031 593.67 172.039 598.194 167.487 600.944C164.124 602.973 160.475 605.381 156.376 605.677C152.686 605.945 148.901 605.149 145.21 605.027C137.702 604.783 130.15 604.927 122.677 605.705C114.665 606.543 105.72 607.868 99.0243 612.444C98.4847 612.812 98.0568 613.611 98.5364 614.207C103.734 620.651 113.338 620.847 121.165 620.718C125.455 620.648 129.75 620.324 134.039 620.468C139.899 620.666 145.788 621.734 151.531 622.783C157.856 623.938 164.135 625.317 170.398 626.752C175.955 628.028 181.269 630.109 186.829 631.328C192.043 632.472 197.21 631.985 201.639 628.969C204.367 627.111 205.833 624.425 206.942 621.484C208.25 618.011 208.962 614.354 210.395 610.923C211.641 607.945 213.657 605.252 217.424 605.741C217.108 605.442 216.789 605.143 216.473 604.842C218.053 611.585 213.268 617.653 212.979 624.291C212.785 628.729 214.706 635.045 219.721 636.584C225.373 638.321 230.881 632.147 231.658 627.386C232.579 621.734 228.459 616.331 229.865 610.74C231.135 605.685 236.506 602.955 241.314 601.46C246.511 599.841 251.97 599.176 257.355 598.39C270.295 596.5 282.946 593.178 295.962 591.652C309.199 590.103 324.05 589.677 336.014 596.155C338.11 597.289 340.955 598.882 341.939 601.12C342.871 603.239 340.148 604.2 338.442 604.667C332.662 606.242 326.74 604.321 321.256 602.558C315.476 600.699 309.695 598.287 303.62 597.426C298.911 596.758 294.027 596.74 289.274 596.761C277.787 596.817 265.708 597.653 254.796 601.277C250.357 602.751 245.707 604.798 242.622 608.278C239.303 612.021 237.864 616.939 237.984 621.775C238.106 626.647 239.703 631.619 242.873 635.498C246.372 639.783 251.537 641.649 257.088 642.324C264.114 643.177 271.184 642.239 278.215 641.976C286.17 641.682 294.177 642.414 302.141 642.414C316.021 642.414 329.517 640.548 343.081 637.94C362.58 634.192 388.476 627.474 393.87 606.466C395.508 600.091 393.952 593.781 389.199 588.958C384.075 583.764 376.692 580.812 369.658 578.722C354.993 574.366 339.132 573.041 323.818 572.925C310.889 572.827 298.292 576.041 285.41 576.544C282.033 576.675 278.624 576.608 275.288 576.036C273.963 575.809 271.143 575.559 270.72 574.033C270.423 572.969 270.968 571.608 270.919 570.507C270.84 568.687 270.096 567.066 268.886 565.661C264.675 560.779 258.456 562.738 252.913 563.98C249.127 564.826 245.127 564.856 241.254 564.877C236.904 564.9 232.557 564.697 228.219 564.46C210.643 563.498 193.054 563.225 175.456 562.921C171.153 562.846 166.839 562.838 162.535 562.663C159.189 562.526 155.875 561.975 152.539 561.696C149.408 561.436 146.262 561.384 143.235 562.281C141.411 562.823 139.106 563.426 137.939 564.991C137.103 566.12 136.844 567.496 135.928 568.615C135.165 569.543 134.355 570.283 133.998 571.45C133.699 572.427 133.81 573.466 133.535 574.443C132.788 577.114 129.668 577.794 127.158 578C124.228 578.24 121.266 578.075 118.336 577.913C107.688 577.327 96.8849 578.464 86.3133 579.655C73.9948 581.044 61.6785 583.032 49.7723 586.38C39.3011 589.324 28.5657 593.327 20.2417 600.207C15.9558 603.752 13.2741 608.415 13.1888 613.864C13.1027 619.501 15.4438 624.979 18.1457 629.9C21.0838 635.254 24.7301 640.218 28.2804 645.216C31.1921 649.315 33.7376 653.888 37.3816 657.466C40.9224 660.943 45.6214 662.5 50.5823 663.181C58.5157 664.271 66.6193 664.16 74.6099 663.925C82.7867 663.686 90.9628 663.206 99.1469 663.299C107.942 663.4 116.736 663.76 125.528 663.987C142.935 664.436 160.382 664.652 177.754 663.338C185.99 662.716 194.035 661.799 201.993 659.649C209.896 657.517 217.683 655.053 225.987 654.963C238.986 654.821 251.488 658.894 264.411 659.494C270.72 659.788 277.062 659.744 283.371 659.484C290.599 659.185 298.072 658.726 305.065 656.865C308.867 655.852 315.143 653.602 313.898 648.763C313.249 646.248 310.93 644.291 308.872 642.757C303.719 638.919 297.971 637.068 291.501 636.303C283.791 635.39 276.373 635.081 269.491 631.269C263.283 627.827 257.903 623.337 251.28 620.545C244.467 617.674 236.861 615.215 229.333 616.764C223.449 617.975 219.857 621.566 217.159 626.43C216.015 628.492 214.922 630.629 213.259 632.372C210.858 634.893 207.623 636.292 204.053 636.491C197.243 636.867 190.675 634.228 183.853 634.395C182.667 634.424 182.065 635.779 182.891 636.594C187.499 641.154 192.618 650.527 184.384 654.259C185.006 654.414 185.627 654.566 186.249 654.72C183.207 650.916 180.577 646.732 177.094 643.26C173.224 639.404 168.294 637.128 163.13 635.21C152.326 631.196 140.765 628.794 130.477 623.618C123.588 620.156 116.845 616.444 109.896 613.085C102.458 609.489 94.7101 605.937 86.5586 604.053C80.6419 602.687 72.3681 601.96 69.1625 608.121C68.8102 608.796 69.023 609.443 69.6512 609.884C78.3415 615.967 89.0005 609.598 97.4709 606.435C109.626 601.901 122.947 600.46 135.762 598.537C144.984 597.153 154.332 595.415 162.508 590.938C166.566 588.718 170.243 585.898 173.565 582.779C175.494 580.97 177.429 579.093 178.917 576.933C180.378 574.809 181.436 572.466 182.485 570.146C184.69 565.264 187.088 559.884 192.847 558.049C197.515 556.561 202.301 556.531 206.007 553.033C208.801 550.396 210.071 546.63 208.863 543.01C207.961 540.309 205.737 537.53 202.745 536.716C199.584 535.857 197.561 537.821 196.493 540.43C195.635 542.526 195.294 545.281 197.608 546.663C199.66 547.887 202.462 547.519 204.713 547.132C207.362 546.678 209.954 545.885 212.472 544.988C219.37 542.536 226.03 539.386 233.509 541.809C237.147 542.987 240.319 545.232 243.282 547.49C246.735 550.122 250.081 552.873 253.714 555.283C255.753 556.634 257.87 557.861 260.07 558.964C260.476 559.168 261.045 559.232 261.443 558.964C264.286 557.059 266.125 554.396 265.834 551.012C265.542 547.64 263.673 544.521 261.879 541.673C260.083 538.819 257.808 535.973 256.957 532.7C255.914 528.671 256.521 524.379 256.807 520.298C257.265 513.772 256.974 506.466 249.899 503.257C243.936 500.55 236.637 500.754 230.203 501.125C222.449 501.571 214.764 502.723 207.084 503.765C201.66 504.502 196.289 505.237 190.808 504.791C184.008 504.237 177.25 503.309 170.447 502.783C164.285 502.308 157.513 501.698 151.454 503.224C149.397 503.744 147.284 504.649 146.213 506.487C144.608 509.245 145.077 513.058 145.33 516.05C145.625 519.504 146.306 522.992 145.461 526.415C144.357 530.888 141.777 534.708 139.463 538.682C137.517 542.026 135.544 545.73 134.876 549.532C134.565 551.295 134.62 553.7 136.814 554.316C138.817 554.881 141.082 553.458 142.605 552.409C145.298 550.553 147.644 548.246 149.721 545.794C152.321 542.722 154.534 539.34 156.526 535.893C158.518 532.444 160.63 528.617 161.214 524.678C161.778 520.865 160.017 517.074 159.374 513.362C158.774 509.902 160.208 506.941 163.397 505.098C169.245 501.71 177.228 502.811 183.76 502.211C189.451 501.69 194.187 500.019 197.755 495.671C201.29 491.361 203.293 486.01 204.748 480.79C206.522 474.415 207.479 467.834 208.062 461.274C209.204 448.419 209.071 435.216 207.01 422.449C206.675 420.379 206.274 418.317 205.721 416.288C205.44 415.265 204.209 415.146 203.443 415.721C187.085 427.962 195.607 450.522 186.513 466.097C182.283 473.343 173.911 477.148 165.978 479.785C156.308 482.996 146.107 484.796 135.961 486.023C126.024 487.221 115.987 487.884 105.966 487.904C106.404 488.219 106.843 488.536 107.279 488.85C105.873 480.715 110.948 473.216 115.845 466.984C121.318 460.019 127.785 453.629 132.222 445.98C134.429 442.176 136.01 438.067 136.225 433.7C136.269 432.811 135.323 432.301 134.5 432.458C128.965 433.517 124.664 437.407 121.8 441.843C122.585 442.276 123.37 442.712 124.155 443.145C125.354 441.178 126.024 438.948 126.795 436.814C127.553 434.724 128.283 432.172 130.18 430.736C132.57 428.926 135.841 428.88 138.738 428.506C141.504 428.148 144.12 427.467 146.339 425.794C153.752 420.198 155.302 409.49 154.902 401.108C154.667 396.254 153.76 391.331 151.591 386.897C151.323 386.35 150.609 386.211 150.053 386.304C139.13 388.139 127.488 388.353 118.279 394.968C110.446 400.595 104.903 408.761 100.578 416.989C92.6634 432.053 88.559 448.548 80.9444 463.725C77.9357 469.721 74.7707 475.652 72.0209 481.762C69.5106 487.34 67.1728 493.137 66.4086 499.195C65.8156 503.894 66.4617 508.925 69.9918 512.526C74.4142 517.037 81.6748 517.963 87.8259 518.079C99.7819 518.306 110.487 514.205 121.473 510.268C133.372 506.005 145.919 503.819 158.014 500.133C163.301 498.522 168.335 496.163 173.647 494.671C177.863 493.485 182.25 492.897 186.6 492.364C194.831 491.351 203.674 490.838 211.218 487.27C214.298 485.814 217.32 483.589 218.966 480.661C219.729 479.305 220.062 477.748 220.348 476.25C221.373 470.868 221.626 465.331 221.798 459.872C222.013 453.064 221.94 446.238 221.561 439.433C221.247 433.821 220.839 428.107 219.563 422.603C219.053 420.412 217.996 415.448 214.578 416.107C210.924 416.816 209.779 422.021 209.136 424.841C207.771 430.811 207.373 437.002 207.106 443.091C206.803 450.046 206.811 457.016 207.005 463.975C207.144 469.033 207.332 474.106 207.833 479.145C208.356 484.409 209.526 490.858 215.175 493.307C218.048 494.552 221.329 494.735 224.43 494.975C230.244 495.426 236.016 496.05 241.769 496.967C253.324 498.816 264.932 501.262 276.182 504.368C288.361 507.732 300.285 511.988 312.865 513.895C322.188 515.308 337.107 516.262 340.154 505.139C340.933 502.288 340.767 499.293 340.284 496.411C339.489 491.657 337.943 486.999 336.158 482.504C332.117 472.325 326.625 462.715 321.035 453.239C315.898 444.534 310.338 435.945 306.011 426.841C302.288 419.015 299.255 410.911 295.284 403.183C291.809 396.424 287.503 388.869 280.551 384.77C276.749 382.53 272.105 380.803 267.556 381.406C259.315 382.497 255.663 390.812 254.311 397.643C252.561 406.493 253.207 416.082 255.963 424.691C257.799 430.432 261.661 438.992 269.227 439.116C272.944 439.175 276.187 436.93 278.676 434.538C278.035 434.538 277.392 434.538 276.749 434.538C280.823 437.673 284.091 442.124 287.312 445.993C292.299 451.981 297.088 458.15 301.437 464.568C303.269 467.27 305.049 470.023 306.528 472.915C307.03 473.894 307.499 474.895 307.839 475.939C308.044 476.57 308.24 477.532 308.202 477.815C308.166 478.075 308.177 478.021 308.049 478.15C307.839 478.362 307.668 478.454 307.324 478.627C306.428 479.081 305.397 479.313 304.414 479.522C301.342 480.171 298.164 480.372 295.033 480.524C287.031 480.911 278.994 480.702 270.996 480.37C265.91 480.161 260.71 480.096 255.655 479.465C249.416 478.684 243.017 477.367 237.114 475.294C235.746 474.815 231.971 473.632 231.753 472.18L231.868 471.977C232.154 471.595 232.612 471.327 233.029 471.092C234.727 470.134 236.681 469.636 238.657 469.657C245.62 469.731 252.788 476.56 259.595 472.299C263.487 469.863 266.035 465.035 267.131 460.859C268.098 457.168 267.692 453.451 266.008 450.007C262.539 442.905 255.178 438.366 251.002 431.697C244.83 421.843 247.958 411.223 250.506 400.871C251.714 395.958 252.627 390.903 251.992 385.85C251.627 382.974 251.073 379.388 249.321 376.911C246.29 372.629 243.012 378.179 241.903 380.741C239.463 386.374 238.068 392.447 236.689 398.373C235.337 404.191 234.168 410.04 233.013 415.896C232.293 419.544 231.505 423.338 229.489 426.575C227.281 430.122 223.629 432.352 219.593 433.703C209.676 437.023 198.338 437.082 188.393 433.857C178.822 430.757 169.373 423.856 165.25 414.898C163.331 410.728 163.716 405.874 164.092 401.456C164.47 397.043 165.157 392.56 164.579 388.134C164.081 384.304 162.451 381.02 159.164 378.656C158.589 378.241 157.619 378.561 157.3 379.117C156.371 380.736 156.071 382.071 155.837 383.886C155.7 384.933 157.071 385.391 157.886 385C166.563 380.826 175.742 376.186 182.117 369.039C185.022 365.783 187.251 361.978 187.878 357.715C188.603 352.765 187.036 347.973 184.477 343.689C183.61 342.238 181.321 343.522 182.125 344.991C189.421 358.367 208.16 362.195 222.498 358.297C229.001 356.529 235.474 352.858 238.518 346.919C240.333 343.377 240.744 339.274 241.75 335.49C242.399 333.049 243.091 330.571 244.151 328.257C245.086 326.213 246.478 324.406 247.765 322.552C250.177 319.083 252.202 315.366 250.997 311.164C249.779 306.924 246.863 303.196 244.355 299.569C243.121 297.786 241.873 295.991 240.872 294.076C239.796 292.012 239.284 289.72 238.409 287.578C236.814 283.68 234.73 279.958 231.833 276.78C227.235 271.735 220.667 268.843 213.6 269.031C206.171 269.232 199.069 272.346 193.138 276.419C186.355 281.077 180.645 287.132 176.334 293.924C174.996 296.03 173.946 298.322 172.374 300.289C170.883 302.147 168.965 303.629 167.267 305.31C165.746 306.81 164.653 308.071 162.653 308.993C161.235 309.646 159.788 310.28 158.84 311.525C157.652 313.079 157.592 315.023 157.815 316.861C158.011 318.49 160.739 318.508 160.54 316.861C160.336 315.167 160.26 313.386 161.857 312.298C163.086 311.463 164.596 311.066 165.855 310.267C167.528 309.202 168.695 307.573 170.125 306.246C171.739 304.748 173.38 303.317 174.729 301.588C177.348 298.232 179.095 294.313 181.697 290.913C184.038 287.861 186.706 285.023 189.631 282.461C198.976 274.272 214.191 267.036 226.025 275.166C229.047 277.244 231.399 280.092 233.231 283.147C235.463 286.874 236.37 290.983 238.242 294.829C240.077 298.595 242.837 301.918 245.119 305.441C247.018 308.375 249.659 312.311 248.37 315.886C246.887 320 243.546 323.155 241.725 327.102C239.861 331.146 238.872 335.552 237.891 339.849C237.182 342.955 236.466 345.813 234.364 348.381C232.421 350.757 229.802 352.562 226.984 353.91C214.726 359.767 196.618 358.06 187.401 347.878C186.246 346.6 185.292 345.182 184.477 343.689C183.692 344.122 182.907 344.555 182.125 344.991C184.488 348.948 185.99 353.451 185.082 358.019C184.284 362.05 181.891 365.572 178.958 368.526C172.755 374.766 164.495 378.934 156.51 382.775C157.194 383.144 157.878 383.515 158.562 383.886C158.736 382.543 158.968 381.613 159.655 380.419C159.033 380.574 158.412 380.726 157.788 380.88C161.492 383.543 162.116 388 162.064 392.114C162.004 396.855 161.156 401.554 161.096 406.294C161.039 410.849 161.911 414.963 164.446 418.871C167.215 423.137 170.785 426.905 174.985 429.952C183.134 435.866 193.359 438.796 203.587 438.784C212.63 438.771 224.313 437.046 230.328 429.942C235.463 423.879 235.776 415.179 237.373 407.872C238.537 402.538 239.676 397.2 241.093 391.918C241.894 388.936 242.758 385.953 243.868 383.056C244.535 381.316 245.38 379.277 246.639 378.024C246.822 377.839 246.71 377.81 246.885 378.112C247.386 378.973 247.847 379.904 248.157 380.917C249.602 385.59 249.779 390.384 248.953 395.179C247.162 405.588 242.519 415.687 245.674 426.331C246.972 430.702 249.365 434.456 252.425 437.912C255.175 441.018 258.315 443.82 260.898 447.06C263.296 450.064 265.098 453.487 264.945 457.335C264.768 461.743 262.163 467.54 258.219 470.074C254.995 472.144 251.207 470.6 247.969 469.383C244.331 468.017 240.586 466.672 236.599 467.216C234.149 467.551 230.099 468.762 229.203 471.319C228.48 473.376 230.394 474.964 232.059 475.915C237.553 479.06 244.672 480.233 250.896 481.323C255.616 482.148 260.331 482.419 265.117 482.672C273.045 483.089 280.995 483.373 288.936 483.275C292.67 483.231 296.415 483.112 300.129 482.736C302.803 482.463 305.632 482.166 308.112 481.117C312.66 479.192 310.483 474.717 308.818 471.489C305.534 465.128 301.102 459.245 296.723 453.531C292.313 447.772 287.721 442.101 282.774 436.742C281.491 435.353 280.196 433.886 278.676 432.716C278.109 432.277 277.31 432.177 276.749 432.716C274.607 434.775 271.677 436.868 268.627 436.505C266.038 436.198 263.885 434.162 262.4 432.051C257.829 425.562 256.396 416.971 256.151 409.331C255.916 402.17 256.546 393.112 261.699 387.376C267.499 380.922 277.326 384.652 282.728 389.704C288.718 395.308 292.406 403.054 295.728 410.253C299.023 417.391 301.775 424.774 305.471 431.741C315.094 449.896 327.721 466.832 334.665 486.185C336.098 490.183 337.439 494.392 337.859 498.615C338.099 501.053 338.039 503.649 337.009 505.938C335.234 509.887 330.871 511.493 326.644 511.972C320.817 512.632 314.808 511.74 309.107 510.627C302.748 509.384 296.499 507.67 290.302 505.85C285.334 504.389 280.403 502.772 275.383 501.473C263.708 498.455 251.82 495.846 239.859 494.078C234.806 493.33 229.739 492.805 224.646 492.413C221.798 492.196 218.609 492.103 216.015 490.838C211.267 488.52 210.812 482.267 210.433 477.779C209.452 466.143 209.319 454.355 209.85 442.699C210.112 436.922 210.48 431.05 211.796 425.39C212.213 423.593 212.69 421.704 213.66 420.09C213.935 419.636 214.385 419.059 214.641 418.876L215.123 418.634L215.053 418.585C215.083 418.616 215.006 418.469 215.197 418.713C215.268 418.809 215.382 418.922 215.562 419.229C215.889 419.791 216.096 420.353 216.304 420.984C216.941 422.91 217.309 424.921 217.625 426.913C218.536 432.677 218.86 438.539 219.051 444.359C219.263 450.726 219.244 457.103 218.928 463.468C218.699 468.079 218.5 472.866 217.323 477.367C215.979 482.491 210.215 485.332 205.018 486.791C196.992 489.049 188.513 489.345 180.291 490.644C176.465 491.248 172.687 492.062 169.103 493.488C163.44 495.738 157.663 497.625 151.765 499.241C145.944 500.839 140.06 502.229 134.197 503.69C128.51 505.105 123.026 506.946 117.543 508.946C107.238 512.704 97.0784 516.04 85.8691 515.432C80.5738 515.143 74.0714 514.032 70.9212 509.5C68.2482 505.654 68.6889 500.633 69.6586 496.344C70.9831 490.485 73.4582 484.875 76.0612 479.434C78.7884 473.729 81.792 468.149 84.5664 462.467C87.6515 456.155 90.0389 449.618 92.4671 443.06C95.6694 434.414 98.9371 425.748 103.319 417.561C107.557 409.648 113.024 401.482 120.879 396.354C129.654 390.619 140.637 390.493 150.778 388.789C150.263 388.593 149.751 388.395 149.239 388.199C152.983 395.854 153.168 405.815 150.811 413.847C149.647 417.814 147.53 422.186 143.679 424.433C138.994 427.171 132.84 425.374 128.384 428.795C124.334 431.904 124.277 437.788 121.8 441.843C120.922 443.284 123.242 444.56 124.155 443.145C126.673 439.245 130.36 435.876 135.225 434.943C134.65 434.528 134.075 434.115 133.5 433.7C133.085 442.068 127.128 449.316 121.863 455.621C116.267 462.323 109.904 468.907 106.404 476.887C104.628 480.937 103.9 485.19 104.652 489.536C104.747 490.085 105.415 490.485 105.966 490.482C114.88 490.464 123.803 489.925 132.655 488.977C142.973 487.871 153.321 486.249 163.258 483.344C171.289 480.996 180.125 477.73 185.783 471.567C192.182 464.599 193.255 455.008 194.209 446.194C195.318 435.969 196.177 424.423 205.369 417.543C204.609 417.352 203.851 417.164 203.091 416.974C205.934 427.364 206.138 438.639 205.955 449.301C205.746 461.65 204.74 474.694 200.028 486.329C198.398 490.353 196.071 494.722 192.214 497.236C187.118 500.558 179.792 499.782 173.925 500.141C168.022 500.502 161.353 501.499 157.957 506.655C156.09 509.49 156.333 512.359 157.052 515.511C157.932 519.37 159.189 522.827 157.897 526.73C156.581 530.717 154.37 534.455 152.081 538.007C150.198 540.928 148.17 543.74 145.715 546.261C143.829 548.197 141.659 550.292 139.108 551.44C137.492 552.166 137.261 551.947 137.503 550.218C138.054 546.279 140.362 542.412 142.39 539.012C144.456 535.548 146.614 532.117 147.772 528.261C148.734 525.057 148.642 522.128 148.323 518.847C148.009 515.622 147.274 511.885 148.219 508.701C149.465 504.5 157.21 504.935 160.739 504.93C167.531 504.925 174.314 505.654 181.054 506.374C186.09 506.915 191.255 507.773 196.338 507.518C202.633 507.201 208.896 506.08 215.132 505.252C222.455 504.28 229.881 503.376 237.291 503.554C242.456 503.677 249.724 504.152 252.676 508.887C254.676 512.096 254.355 516.21 254.118 519.78C253.867 523.551 253.404 527.351 253.905 531.122C254.796 537.803 260.31 542.438 262.514 548.638C263.664 551.865 263.125 554.69 260.07 556.737C260.528 556.737 260.985 556.737 261.443 556.737C254.038 553.025 248.225 547.478 241.442 542.943C235.217 538.783 228.33 537.316 220.888 539.211C215.611 540.554 211.169 543.036 205.822 544.274C204.05 544.683 201.02 545.526 199.273 544.606C197.605 543.724 199.019 540.551 199.973 539.621C201.846 537.785 204.688 540.783 205.552 542.227C207.495 545.475 206.541 549.117 203.683 551.571C200.071 554.662 195.038 554.324 190.775 556.051C186.172 557.917 183.45 561.846 181.438 566.004C179.313 570.401 177.667 574.853 174.154 578.477C170.995 581.738 167.542 584.772 163.645 587.234C156.521 591.732 148.323 593.833 139.981 595.263C126.994 597.488 113.826 598.746 101.18 602.501C95.9855 604.043 91.189 606.437 86.0817 608.183C81.0589 609.902 75.6172 610.871 71.0267 607.657C71.1896 608.244 71.3524 608.832 71.5164 609.42C74.0619 604.527 80.8409 605.424 85.4903 606.461C93.2738 608.198 100.646 611.536 107.745 614.939C114.523 618.187 121.113 621.762 127.793 625.18C136.555 629.665 146.107 632.251 155.493 635.308C161.819 637.37 168.687 639.406 173.731 643.752C177.8 647.255 180.602 651.903 183.894 656.022C184.368 656.613 185.028 656.816 185.761 656.484C195.785 651.939 190.625 640.515 184.818 634.772C184.496 635.506 184.175 636.238 183.853 636.973C190.767 636.803 197.428 639.517 204.347 639.048C210.373 638.641 214.971 635.401 217.922 630.544C219.146 628.528 220.124 626.376 221.523 624.456C223.283 622.033 225.771 620.398 228.75 619.566C236.389 617.434 244.598 620.383 251.474 623.448C257.75 626.245 262.89 630.756 268.927 633.934C275.179 637.226 281.938 637.924 288.931 638.607C295.72 639.27 301.925 640.757 307.332 644.874C308.902 646.07 311.279 648 311.328 649.885C311.36 651.199 309.867 652.251 308.338 652.986C305.874 654.174 303.059 654.762 300.364 655.254C293.256 656.553 285.941 656.899 278.722 657.048C273.331 657.162 267.886 657.205 262.506 656.808C247.92 655.728 233.718 650.862 218.953 652.913C211.283 653.978 204.015 656.643 196.509 658.368C188.418 660.229 179.92 660.701 171.63 661.162C154.613 662.111 137.552 661.747 120.524 661.276C112.111 661.041 103.679 660.644 95.2606 660.719C87.2808 660.788 79.312 661.268 71.3344 661.43C63.8364 661.585 55.9403 661.763 48.5735 660.234C43.7583 659.237 40.1198 656.994 37.1996 653.256C33.8428 648.957 30.9005 644.322 27.762 639.878C24.2916 634.967 20.8337 629.931 18.4329 624.453C16.2698 619.519 14.839 613.812 16.9479 608.636C18.9058 603.834 23.6931 600.519 28.1558 597.882C37.8201 592.172 49.0057 588.919 60.0283 586.489C71.8241 583.89 83.8578 582.313 95.9119 581.287C101.085 580.849 106.274 580.493 111.463 580.279C116.54 580.07 121.601 580.941 126.686 580.611C131.657 580.287 135.789 578.451 136.424 573.358C136.694 571.187 138.539 569.973 139.452 568.035C140.016 566.836 140.163 566.207 141.496 565.614C147.56 562.91 154.291 564.581 160.65 565.117C168.741 565.8 177.015 565.524 185.137 565.661C193.787 565.81 202.434 565.973 211.079 566.254C219.405 566.524 227.712 567.143 236.035 567.385C240.158 567.506 244.29 567.488 248.405 567.189C251.523 566.962 254.412 566.228 257.445 565.57C260.585 564.893 263.959 564.418 266.376 566.854C267.624 568.112 268.265 569.522 268.188 571.244C268.134 572.458 267.777 573.69 268.137 574.897C268.562 576.317 269.856 577.155 271.238 577.678C276.855 579.807 283.824 579.343 289.713 578.848C301.473 577.866 313.023 575.358 324.875 575.513C331.841 575.606 338.807 576.023 345.724 576.786C353.914 577.691 362.123 579.083 369.969 581.524C376.534 583.565 383.489 586.455 388.024 591.585C392.545 596.699 392.565 603.202 390.093 609.201C386.193 618.663 377.292 624.584 367.742 628.477C357.604 632.609 346.653 634.759 335.845 636.64C329.348 637.769 322.867 638.878 316.271 639.362C307.967 639.973 299.628 639.899 291.307 639.659C287.517 639.551 283.712 639.293 279.921 639.352C276.632 639.404 273.35 639.672 270.069 639.863C263.408 640.244 255.875 640.693 249.746 637.721C240.736 633.354 238.319 620.257 242.963 612.322C245.364 608.226 249.73 605.845 254.221 604.213C259.429 602.321 264.967 601.254 270.478 600.529C280.848 599.166 291.752 598.758 302.179 599.831C307.937 600.424 313.492 602.726 318.915 604.517C324.009 606.198 329.658 608.219 335.15 607.85C338.742 607.608 345.362 606.138 344.852 601.568C344.345 596.99 337.87 593.943 334.043 592.325C322.085 587.275 308.382 587.6 295.652 589.11C283.069 590.605 270.829 593.706 258.336 595.65C248.983 597.104 236.547 597.604 229.979 605.076C226.226 609.348 226.624 614.294 227.954 619.375C228.655 622.04 229.551 624.907 228.837 627.657C228.118 630.426 225.115 634.161 221.828 634.305C219.293 634.413 217.595 632.006 216.742 630.054C215.603 627.448 215.451 624.564 216.028 621.819C217.29 615.82 220.574 610.441 219.1 604.156C219.01 603.767 218.585 603.313 218.149 603.257C211.03 602.329 208.288 608.146 206.569 613.645C205.601 616.743 204.884 619.994 203.399 622.922C201.497 626.665 197.586 629.021 193.19 629.343C187.788 629.735 182.572 627.345 177.536 625.86C171.714 624.144 165.642 622.986 159.69 621.752C149.247 619.586 138.662 617.609 127.929 617.942C122.985 618.094 118.012 618.37 113.073 617.913C108.675 617.509 103.715 616.408 100.888 612.905C100.728 613.493 100.564 614.08 100.401 614.668C106.203 610.704 113.815 609.348 120.77 608.5C128.172 607.595 135.675 607.389 143.131 607.548C146.595 607.623 150.01 607.976 153.463 608.219C156.845 608.456 159.914 607.847 162.961 606.443C166.599 604.762 169.973 602.514 173.322 600.375C175.492 598.988 177.694 597.421 180.144 596.49C182.471 595.606 184.758 595.763 187.058 596.668C191.353 598.359 195.152 601.39 198.741 604.11C200.099 605.136 202.039 603.324 200.671 602.287Z" fill="#100F0D" fill-opacity="0.1"/>
<path d="M228.831 73.2554C229.586 77.6916 230.21 80.375 231.044 82.2284C231.655 83.6075 232.5 84.5818 233.538 85.1669C234.309 85.6077 235.097 85.8371 235.915 86.064C237.146 86.4017 238.504 86.7264 240.297 87.5281C242.085 88.3298 244.303 89.6109 247.107 91.8664C247.331 92.0236 247.584 92.2711 248.255 92.302C248.601 92.3149 249.026 92.1551 249.271 91.9283C249.645 91.5828 249.71 91.2812 249.767 91.0673L249.825 90.477C249.816 89.6006 249.587 88.42 249.269 86.747C248.301 81.7901 246.402 72.9615 246.402 63.3982C246.399 54.7654 247.958 45.5914 253.013 38.1805C259.737 28.2975 271.466 22.869 282.869 22.8716C289.056 22.8716 295.125 24.4645 300.257 27.7717C305.389 31.0841 309.616 36.1055 312.115 43.1065C312.297 43.6143 312.788 43.9623 313.355 43.9829C313.922 44.0036 314.44 43.6917 314.66 43.1968C315.598 41.1011 316.034 38.6832 316.037 36.0926C316.023 28.6869 312.502 19.7628 305.879 12.5787C299.262 5.4024 289.432 -0.00299862 276.947 -0.000420917H276.939C269.76 0.00215679 263.383 0.728974 257.81 2.41479C249.446 4.93063 242.897 9.68403 238.465 17.1516C234.023 24.6141 231.633 34.7057 231.159 48.0608C231.134 48.7697 231.723 49.3678 232.475 49.391C233.227 49.4142 233.86 48.8573 233.884 48.1459C234.497 30.6459 238.495 19.291 245.557 12.3544C249.094 8.87712 253.422 6.44891 258.638 4.86877C263.852 3.29122 269.954 2.57728 276.939 2.57728H276.947C288.576 2.58502 297.608 7.55996 303.827 14.2749C310.038 20.9795 313.322 29.4576 313.311 36.0926C313.311 38.41 312.913 40.4927 312.153 42.1914L313.407 42.6941L314.698 42.2843C312.03 34.796 307.419 29.2643 301.791 25.6426C296.163 22.0158 289.546 20.2938 282.869 20.2938C270.573 20.299 257.998 26.1117 250.724 36.7834C245.257 44.8232 243.679 54.487 243.676 63.3982C243.676 69.9842 244.546 76.1785 245.407 81.0426C245.837 83.476 246.268 85.5768 246.587 87.2136C246.909 88.835 247.107 90.0671 247.099 90.477L247.097 90.5621L247.868 90.6471L247.214 90.2759L247.097 90.5621L247.868 90.6471L247.214 90.2759L248.23 90.8508L247.598 89.9073L247.214 90.2759L248.23 90.8508L247.598 89.9073L248.255 90.8868V89.7243L247.598 89.9073L248.255 90.8868V89.7243V90.593L248.873 89.9047C248.863 89.9176 248.789 89.7578 248.255 89.7243V90.593L248.873 89.9047C245.371 87.0847 242.597 85.6103 240.384 84.7467C238.73 84.0997 237.397 83.7956 236.427 83.5197C235.694 83.3135 235.192 83.1254 234.827 82.8856C234.296 82.5351 233.811 81.9938 233.244 80.4575C232.69 78.9366 232.143 76.5316 231.524 72.8481C231.404 72.1444 230.706 71.6675 229.962 71.7783C229.218 71.8918 228.714 72.5517 228.831 73.2554Z" fill="#100F0D" fill-opacity="0.1"/>
</svg>
