<svg width="405" height="320" viewBox="0 0 405 320" fill="none" xmlns="http://www.w3.org/2000/svg">
<path d="M177.652 228.834C160.905 228.834 144.672 223.567 131.713 211.218C122.566 202.483 115.557 191.963 105.849 183.743C97.1007 176.312 86.7769 170.769 77.0508 164.66C55.6969 151.223 38.8166 135.126 36.3533 109.779C32.2419 67.5622 64.4811 18.0867 108.547 5.47324C117.929 1.87627 128.099 -0.00122868 138.275 -0.00122868C140.042 -0.00122868 141.812 0.0554031 143.576 0.170383C175.109 2.24688 202.965 19.6312 225.116 39.9499C262.933 74.6326 286.588 126.699 264.473 175.214C250.786 205.243 213.08 228.834 177.652 228.834Z" fill="#FFEAE8" fill-opacity="0.5"/>
<path d="M158.697 107.267C156.857 111.214 155.508 115.346 153.653 119.29C151.595 123.666 149.072 127.117 144.917 129.918C140.811 132.686 136.437 134.995 133.013 138.571C128.768 143.011 125.063 148.02 121.173 152.74C105.26 172.046 89.407 191.379 72.8676 210.21C65.2314 218.903 57.6206 227.627 50.5652 236.752C43.6678 245.676 36.8048 255.097 32.1436 265.28C30.0453 269.865 28.2647 274.971 28.6676 280.037C29.0198 284.463 32.2325 287.567 35.5052 290.429C37.4655 292.144 39.3133 294.077 41.711 295.255C43.7839 296.271 46.0492 296.714 48.3199 297.138C50.8756 297.613 53.3678 298.201 55.5513 299.607C56.5025 300.22 58.1488 301.165 56.635 301.948C54.1628 303.224 50.6978 303.159 47.9678 303.502C42.8092 304.153 37.7505 305.82 32.4939 304.987C26.5203 304.043 20.888 300.805 15.5098 298.321C11.4766 296.458 6.37977 295.358 3.85857 291.55C-0.0929506 285.587 1.61324 276.276 8.60327 273.062C11.1916 271.872 13.9379 272.112 15.2031 274.791C16.1978 276.895 16.1451 279.615 15.2321 281.735C14.5315 283.361 11.8905 285.828 10.1225 283.785C8.42178 281.821 9.76312 277.834 10.491 275.766C11.2787 273.532 12.6347 270.02 14.9744 268.789C15.9273 268.286 17.1978 268.428 18.2506 268.44C19.7771 268.457 21.3109 268.519 22.8302 268.342C25.1463 268.073 27.3244 267.024 27.0503 264.504C26.7472 261.729 24.5201 260.431 21.8283 260.102C18.5211 259.695 15.2539 259.813 14.7475 255.896C14.2519 252.062 16.0925 247.933 17.6262 244.477C19.3887 240.51 21.5088 236.702 23.549 232.86C25.5384 229.114 27.3353 225.277 29.2956 221.515C33.9024 212.676 39.0265 203.81 46.0855 196.483C49.3618 193.08 53.13 190.564 56.9381 187.757C60.5194 185.115 63.6304 181.969 66.3059 178.505C71.7586 171.451 75.2745 163.229 78.1823 154.99C81.1736 146.514 83.5042 137.841 86.6044 129.4C88.9623 122.979 91.7285 116.68 94.9123 110.587C98.5661 103.595 102.795 96.757 108.115 90.7723C112.911 85.3764 118.843 80.3583 126.109 78.2742C133.627 76.1179 141.615 77.9531 148.466 81.227C155.695 84.6829 161.743 89.95 166.873 95.8197C177.776 108.294 184.893 123.319 192.275 137.785C201.581 156.019 212.824 173.262 227.169 188.356C230.607 191.973 233.23 195.851 233.891 200.754C234.466 205.009 233.943 209.477 232.404 213.51C230.767 217.793 227.765 221.397 223.276 223.255C218.961 225.038 214.106 224.523 210.078 222.326C203.079 218.508 197.274 208.731 200.741 201.113C203.475 195.108 211.828 195.147 217.527 196.363C226.296 198.236 233.11 203.5 238.002 210.535C240.721 214.446 242.963 218.63 245.614 222.58C248.736 227.229 252.378 231.605 256.011 235.902C263.463 244.707 271.788 252.584 280.385 260.375C288.101 267.367 295.953 274.293 304.669 280.173C309.051 283.131 313.658 285.812 318.526 287.996C323.478 290.216 328.609 291.618 333.869 293.014C345.931 296.214 357.8 300.058 369.956 302.944C375.61 304.287 381.36 305.155 387.025 306.436C392.728 307.725 398.331 309.389 403.858 311.234C403.726 310.757 403.592 310.278 403.459 309.801C400.651 312.664 395.612 314 391.812 315.104C386.145 316.749 380.178 317.849 374.234 317.841C369.665 317.832 363.681 317.224 360.876 313.295C359.677 311.61 358.297 307.619 359.878 305.868C361.034 304.587 363.423 305.787 364.322 306.795C365.741 308.386 364.283 309.736 362.479 309.828C359.853 309.964 357.085 309.032 354.647 308.216C349.198 306.395 344.217 303.657 338.904 301.541C329.243 297.698 318.938 294.822 308.804 292.314C304.31 291.2 299.745 290.353 295.274 289.146C291.129 288.027 286.594 286.643 283.16 284.082C280.94 282.427 278.737 280.015 277.639 277.539C277.174 276.492 276.807 275.223 278.049 274.566C279.26 273.924 280.646 274.385 281.425 275.386C283.019 277.434 281.895 279.876 279.169 279.903C275.938 279.934 273.353 277.17 271.416 275.043C268.944 272.327 266.848 269.328 264.66 266.408C262.569 263.616 260.25 261.264 257.68 258.854C249.809 251.47 241.868 244.148 234.353 236.436C231.734 233.748 228.961 231.183 226.4 228.444C223.938 225.814 220.664 222.211 221.693 218.412C222.163 216.674 223.063 216.811 224.367 217.759C225.601 218.657 226.63 219.836 227.634 220.949C229.545 223.067 231.642 225.933 234.709 226.582C238.263 227.332 242.168 225.122 245.375 224.005C250.132 222.35 254.85 221.526 259.914 222.243C266.948 223.241 273.139 226.645 276.408 232.766C279.643 238.819 280.664 247.286 277.905 253.633C275.078 260.138 268.599 264.696 261.691 266.857C254.701 269.045 246.515 269.259 240.327 265.065C237.406 263.086 234.854 260.543 231.484 259.225C228.287 257.973 225.792 258.505 222.581 259.255C221.011 259.621 218.351 260.498 218.462 258.066C218.542 256.346 219.978 254.539 221.107 253.293C221.58 252.769 221.359 252.107 220.706 251.858C216.055 250.09 216.476 244.297 215.055 240.601C214.494 239.147 214.305 239.118 215.603 237.949C217.52 236.22 220.077 236 222.228 234.657C222.677 234.379 222.757 233.931 222.553 233.483C219.411 226.558 209.199 225.528 202.326 224.884C198.165 224.494 194 224.266 189.85 223.778C185.049 223.213 177.84 222.134 176.241 216.999C175.694 215.246 175.475 213.44 174.761 211.726C173.984 209.862 172.781 208.367 171.291 206.957C169.653 205.405 167.729 203.996 166.515 202.097C165.147 199.953 165.392 197.647 166.321 195.393C168.103 191.068 171.521 187.406 174.585 183.858C176.665 181.449 178.825 179.104 181.071 176.833C184.378 173.49 187.868 170.221 191.773 167.499C194.557 165.557 198.632 162.8 202.307 163.814C202.097 163.463 201.885 163.111 201.674 162.759C201.124 165.749 197.744 167.794 195.319 169.408C192.825 171.068 190.431 172.659 188.202 174.637C184.861 177.604 181.622 180.684 178.606 183.951C176.424 186.313 174.509 188.898 172.097 191.063C168.764 194.056 163.014 197.482 159.598 192.701C157.254 189.42 156.891 185.144 156.846 181.308C156.799 177.343 156.824 173.514 155.997 169.609C154.29 161.538 152.109 153.546 147.725 146.363C146.846 144.925 145.754 143.476 145.26 141.864C144.636 139.829 145.365 137.786 146.503 136.034C148.46 133.019 151.805 131.087 154.372 128.591C158.164 124.905 161.433 120.191 163.671 115.525C165.557 111.597 167.105 106.538 163.589 102.992C157.681 97.0368 151.742 108.951 149.919 112.756C146.001 120.948 143.819 129.695 140.347 138.042C134.014 153.261 124.985 167.33 116.008 181.25C106.992 195.226 94.6327 206.763 83.3572 219.062C78.6433 224.204 73.9966 229.478 69.6294 234.889C65.4728 240.04 61.3507 245.841 60.0783 252.328C58.893 258.37 61.1801 264.219 64.5162 269.328C67.6346 274.107 72.1543 278.114 77.8991 279.829C80.9086 280.729 84.0778 280.92 87.2071 280.636C86.9039 280.351 86.6008 280.065 86.2995 279.778C86.5736 286.032 78.2894 285.587 73.7552 284.806C70.6858 284.276 67.818 283.383 65.1588 281.812C61.554 279.683 58.4247 277.443 54.0539 277.077C50.155 276.753 46.2924 276.466 43.9309 273.129C42.5496 271.177 42.0922 268.744 42.3609 266.433C42.5769 264.577 43.2811 262.339 44.8857 261.12C46.6591 259.772 48.7519 260.893 49.7883 262.559C50.3329 263.436 51.1479 266.569 49.6776 267.237C47.9623 268.014 47.3216 264.099 47.3652 263.142C47.5158 259.805 48.9153 256.419 50.2694 253.37C50.7213 252.352 48.9661 251.908 48.5196 252.914C46.9985 256.337 45.2869 260.371 45.5519 264.153C45.7025 266.332 48.3617 270.926 51.0589 268.353C55.3226 264.287 48.6358 255.746 43.6024 259.906C39.1572 263.58 39.6455 271.378 43.4064 275.259C44.5844 276.476 46.0964 277.376 47.73 277.941C50.7595 278.988 54.0956 278.353 57.1233 279.381C60.0256 280.368 62.4125 282.3 65.0481 283.756C66.7488 284.695 68.5549 285.364 70.4499 285.855C76.3908 287.392 88.4994 288.533 88.1146 279.778C88.0947 279.349 87.7117 278.875 87.2071 278.919C80.433 279.531 74.1872 277.446 69.5078 272.734C65.1806 268.38 61.3579 261.645 61.5195 255.549C61.6955 248.898 65.7759 242.755 69.7874 237.542C74.0493 232.005 78.8049 226.71 83.5151 221.512C94.2116 209.711 106.019 198.73 115.144 185.729C119.856 179.015 124.127 171.959 128.352 164.965C132.498 158.101 136.406 151.102 139.748 143.853C143.861 134.926 146.316 125.501 150.183 116.502C151.466 113.516 158.137 97.9433 162.994 105.037C166.09 109.563 161.389 116.481 158.815 120.256C157.427 122.292 155.92 124.274 154.272 126.131C152.054 128.634 149.164 130.461 146.83 132.852C144.783 134.95 142.995 137.805 143.209 140.763C143.427 143.795 145.759 146.425 147.208 149.011C149.357 152.848 150.891 156.954 152.089 161.138C153.268 165.255 154.483 169.597 154.878 173.852C155.501 180.531 153.78 188.49 158.525 194.21C161.358 197.628 165.715 197.299 169.354 195.235C174.916 192.083 178.453 186.495 182.813 182.12C185.607 179.319 188.498 176.44 191.647 173.99C193.982 172.173 196.632 170.75 198.984 168.954C200.926 167.473 202.977 165.645 203.424 163.215C203.509 162.752 203.299 162.299 202.79 162.159C199.656 161.294 196.372 162.7 193.72 164.199C189.976 166.316 186.652 169.118 183.541 171.986C177.751 177.327 172.088 183.326 167.57 189.686C165.152 193.092 162.507 197.582 164.304 201.745C166.228 206.209 171.55 208.204 173.266 212.835C174.589 216.408 174.467 219.727 178.092 222.067C182.795 225.104 188.886 225.468 194.386 225.972C199.323 226.425 204.29 226.583 209.161 227.534C213.696 228.42 219.005 229.983 220.987 234.35C221.096 233.959 221.205 233.567 221.312 233.176C219.96 234.019 218.386 234.355 216.919 234.97C215.654 235.5 214.616 236.376 213.679 237.33C212.492 238.537 212.567 239.305 213.173 240.745C214.206 243.197 214.255 245.906 215.318 248.376C216.298 250.656 217.756 252.575 220.223 253.515C220.09 253.036 219.956 252.558 219.823 252.079C218.046 254.042 214.828 258.505 217.745 260.835C220.214 262.806 224.635 260.028 227.38 260.066C231.95 260.129 235.399 263.709 238.799 266.119C242.335 268.626 246.183 269.839 250.582 270.051C258.692 270.437 267.12 267.695 273.206 262.601C276.148 260.14 278.495 257.06 279.873 253.569C281.423 249.64 281.414 245.413 280.86 241.301C279.891 234.093 276.471 227.21 269.592 223.495C265.944 221.526 261.76 220.571 257.594 220.285C251.748 219.883 246.509 221.768 241.147 223.706C239.254 224.391 236.915 225.407 234.849 224.846C232.823 224.295 231.315 222.384 230.001 220.942C228.251 219.019 225.888 215.508 222.929 215.26C219.618 214.983 219.373 219.785 219.936 221.847C221.007 225.766 224.419 229.05 227.298 231.88C235.531 239.973 243.652 248.138 252.096 256.042C255.776 259.485 259.669 262.747 262.693 266.742C265.167 270.011 267.496 273.397 270.295 276.432C272.464 278.786 275.232 281.424 278.735 281.606C281.378 281.744 283.864 280.365 283.968 277.673C284.051 275.465 282.518 273.098 280.138 272.639C277.546 272.138 275.096 273.896 275.426 276.442C275.814 279.434 278.513 282.269 280.699 284.29C283.707 287.067 287.831 288.662 291.755 289.914C297.073 291.608 302.602 292.57 308.026 293.897C313.952 295.346 319.836 297.1 325.672 298.846C332.02 300.743 338.298 302.896 344.239 305.756C346.33 306.764 348.445 307.712 350.612 308.568C353.601 309.749 356.711 310.869 359.925 311.355C361.962 311.662 364.828 311.866 366.128 309.979C368.585 306.409 362.695 302.074 359.283 304.103C356.76 305.602 357.4 309.446 358.101 311.679C358.831 314.007 360.483 315.899 362.668 317.149C367.983 320.189 375.118 319.844 381.024 319.099C387.448 318.289 393.939 316.69 399.809 314.055C401.55 313.272 403.412 312.371 404.742 311.015C405.227 310.52 404.991 309.797 404.341 309.579C398.375 307.586 392.316 305.799 386.141 304.479C379.701 303.104 373.228 302.022 366.843 300.407C354.111 297.186 341.493 293.443 328.85 289.926C317.609 286.799 307.617 280.595 298.62 273.639C289.756 266.789 281.517 259.166 273.344 251.597C263.933 242.883 255.093 233.099 247.845 222.685C242.091 214.415 238.094 205.038 229.157 199.242C223.452 195.541 215.863 193.314 208.925 194.164C202.171 194.993 197.893 199.536 198.06 206.034C198.272 214.341 204.126 222.576 212.565 225.263C221.486 228.104 230.249 222.946 233.684 215.115C237.214 207.065 236.818 197.247 231.152 190.193C227.585 185.753 223.367 181.808 219.765 177.375C215.768 172.453 212.002 167.36 208.473 162.127C198.046 146.669 190.887 129.697 181.533 113.695C173.376 99.7391 162.816 85.0743 146.75 78.5883C139.591 75.699 131.719 74.4818 124.252 77.0518C116.837 79.6029 110.811 84.8769 105.928 90.5972C95.8107 102.446 88.9986 117 83.9816 131.384C77.8302 149.023 74.2743 169.482 59.7788 183.108C56.183 186.49 51.7777 188.874 48.0749 192.133C44.2395 195.505 40.9505 199.414 38.0119 203.503C32.0147 211.843 27.5713 220.995 22.9863 230.065C19.2435 237.471 13.8272 245.156 12.945 253.503C12.6383 256.407 13.299 259.772 16.4537 260.995C18.8242 261.915 23.0752 260.941 24.678 263.142C27.3843 266.863 21.3581 266.766 19.1219 266.737C16.5045 266.701 14.3572 266.603 12.5112 268.586C10.4148 270.837 9.09336 273.865 8.29108 276.736C7.634 279.084 7.00415 282.24 8.41994 284.463C9.64878 286.393 12.3896 286.609 14.3155 285.498C16.3956 284.298 17.3358 281.865 17.6171 279.687C18.227 274.973 15.4572 269.307 9.55803 270.878C2.15234 272.849 -1.04046 280.895 0.297279 287.521C0.945277 290.736 2.71321 293.819 5.5684 295.74C7.58136 297.095 10.0953 297.778 12.317 298.767C15.2539 300.075 18.1345 301.487 21.0695 302.798C26.4532 305.207 31.904 307.389 37.9774 306.836C42.4317 306.431 46.8152 305.384 51.2568 304.831C53.4494 304.56 57.4627 304.427 58.8331 302.427C60.6101 299.832 55.5641 297.473 53.7852 296.774C51.471 295.864 48.9915 295.576 46.5683 295.049C43.3447 294.348 41.0104 292.951 38.6217 290.818C36.6251 289.038 34.4597 287.363 32.7807 285.296C30.9002 282.981 30.3067 280.511 30.4718 277.622C30.8131 271.681 33.5503 265.971 36.4563 260.794C39.4313 255.496 42.7947 250.385 46.3378 245.411C61.1582 224.613 79.2441 205.994 95.6873 186.358C104.207 176.184 112.604 165.916 121.037 155.675C125.265 150.544 129.331 145.206 133.83 140.286C137.584 136.179 142.592 133.755 147.097 130.523C154.717 125.051 156.592 116.009 160.266 108.134C160.732 107.132 159.169 106.258 158.697 107.267Z" fill="#100F0D" fill-opacity="0.1"/>
</svg>
