<svg width="448" height="547" viewBox="0 0 448 547" fill="none" xmlns="http://www.w3.org/2000/svg">
<path d="M236.755 386.488C232.078 386.488 227.361 386.107 222.613 385.29C186.832 379.103 161.568 347.964 155.9 315.279C152.575 296.153 154.782 277.487 159.606 258.776C162.195 248.774 165.547 238.644 165.602 228.23C165.656 219.208 162.792 210.676 159.958 202.144C153.828 183.79 149.686 166.417 152.874 147.11C155.791 129.323 163.803 112.311 173.805 97.1022C206.318 47.636 263.114 8.45484 325.197 4.07274C326.996 2.70656 329.34 1.72708 332.31 1.28887C336.344 0.706309 340.336 0.425314 344.264 0.425314C379.513 0.425314 409.743 23.0627 423.01 54.4669C439.307 93.1067 430.42 138.242 421.156 177.501C406.33 240.265 377.251 304.195 325.088 347.32C300.874 367.328 269.84 386.488 236.755 386.488Z" fill="#FFEAE8" fill-opacity="0.5"/>
<path d="M209.57 63.9878C211.875 61.2761 214.759 58.0952 215.015 54.4477C215.217 51.6097 213.486 49.215 211.867 46.9776C209.668 43.9359 207.984 40.6467 205.844 37.5869C204.035 34.9963 201.664 33.0579 198.219 33.7848C198.731 33.9833 199.244 34.1792 199.756 34.3777C196.543 27.4437 204.986 19.6977 198.851 13.1993C198.219 12.5291 197.191 12.8307 196.712 13.4622C189.781 22.5873 188.732 34.2437 183.167 44.0158C181.275 47.3384 179.221 51.2926 180.275 55.1669C181.188 58.5154 184.05 61.1549 185.892 64.0549C189.152 69.1871 190.863 75.2756 192.924 80.9027C195.049 86.6974 197.088 92.523 198.946 98.3976C202.702 110.271 205.727 122.386 207.256 134.707C208.461 144.405 209.041 154.421 208.022 164.163C207.504 169.112 206.741 174.038 206.084 178.969C204.332 192.123 202.694 205.514 203.612 218.787C204.22 227.561 205.951 240.491 216.064 244.123C228.405 248.557 238.78 238.071 241.854 227.767C243.377 222.656 243.969 216.155 240.707 211.5C237.423 206.821 230.048 206.063 225.219 209.077C222.927 210.51 221.248 213.033 221.482 215.696C221.7 218.166 223.69 219.967 226.333 219.942C234.125 219.864 236.025 210.979 236.499 205.295C236.829 201.351 236.67 197.389 236.488 193.44C236.259 188.561 236.327 183.676 236.273 178.789C236.123 165.276 235.651 151.764 234.616 138.285C234.087 131.413 233.427 124.548 232.553 117.707C231.977 113.191 231.054 108.791 228.876 104.698C226.748 100.699 223.641 97.2609 220.815 93.7036C217.645 89.7159 215.429 85.4652 213.047 81.0342C211.088 77.3919 208.924 73.7238 205.367 71.2724C204.871 70.9322 204.13 71.1126 203.716 71.4735C196.616 77.709 205.544 89.7417 209.365 95.3456C211.995 99.207 215.026 102.901 217.367 106.932C221.36 113.823 221.978 122.04 221.147 129.709C220.414 136.463 218.596 143.01 218.334 149.813C218.1 155.953 218.269 162.175 217.163 168.251C216.16 173.767 213.802 179.869 207.52 181.65C201.882 183.248 198.121 177.958 196.022 173.816C193.463 168.769 192.763 163.461 191.375 158.097C189.83 152.112 185.115 147.521 183.153 141.698C181.709 137.411 182.826 133.305 185.707 129.789C187.26 127.892 189.49 126.074 192.204 126.379C196.483 126.858 199.532 131.604 200.135 135.282C200.405 136.924 200.276 138.896 198.867 140.069C198.249 140.587 196.717 141.458 195.949 140.881C195.262 140.368 195.45 138.749 195.51 138.04C196.068 131.529 201.552 128.363 207.954 127.495C219.951 125.871 234.659 127.585 245.007 133.808C247.643 135.393 250.055 137.414 251.717 139.935C253.906 143.255 254.132 146.856 253.818 150.676C253.51 154.478 252.802 158.254 253.347 162.069C253.829 165.457 255.197 168.542 256.459 171.718C257.361 173.984 258.263 176.335 258.078 178.786C257.925 180.84 257.356 182.892 256.696 184.846C255.402 188.687 253.132 194.175 248.913 195.938C246.618 196.899 244.503 195.941 242.726 194.476C242.015 193.889 241.126 194.038 240.587 194.737C234.201 202.983 249.346 213.358 254.881 217.616C258.904 220.712 263.507 223.566 266.949 227.267C273.122 233.905 271.165 241.285 269.98 249.16C269.429 252.8 269.326 256.452 270.181 260.061C271.004 263.523 273.482 267.193 273.304 270.802C272.931 278.412 260.179 276.563 254.974 276.365C247.16 276.066 239.306 277.455 231.511 276.625C223.496 275.775 217.149 271.583 214.464 264.358C213.516 261.806 212.848 259.115 212.573 256.419C212.461 255.326 211.916 252.39 212.857 251.472C212.42 251.897 212.799 251.779 213.412 252.513C214.405 253.699 215.157 255.153 215.833 256.514C217.71 260.296 218.779 264.44 219.607 268.529C220.485 272.849 221.033 277.221 221.45 281.603C221.837 285.652 222.305 289.764 221.847 293.826C221.411 297.719 220.166 302.142 217.866 305.436C215.92 308.22 213.396 310.641 211.112 313.172C208.455 316.121 204.005 320.256 206.31 324.424C208.469 328.321 213.432 330.945 217.28 333.085C227.009 338.493 237.802 341.867 247.585 347.108C253.608 350.335 261.457 355.596 268.159 350.729C273.509 346.845 272.825 339.712 272.143 334.09C271.756 330.92 271.323 327.808 271.593 324.612C271.925 320.627 272.773 316.696 273.52 312.767C274.923 305.39 276.433 297.523 274.395 290.12C273.473 286.779 271.748 283.804 269.372 281.196C268.928 280.708 267.881 280.677 267.445 281.196C264.068 285.214 263.463 290.877 262.842 295.801C262.038 302.199 261.507 308.483 260.013 314.788C256.293 330.492 247.256 344.143 238.437 357.715C230.037 370.637 220.678 383.025 209.483 393.929C196.815 406.268 181.927 416.808 167.488 427.202C155.398 435.905 142.938 444.148 129.884 451.507C125.114 454.198 120.209 456.926 115.006 458.805C111.542 460.057 106.511 460.957 105.538 456.211C104.873 452.959 107.443 449.001 110.409 447.46C114.606 445.282 116.328 450.705 115.532 453.803C114.344 458.438 108.885 461.475 104.794 463.584C100.11 465.999 95.1249 467.811 90.1621 469.649C75.9331 474.915 62.5544 482.656 50.4839 491.469C44.3301 495.962 37.6639 500.834 32.7692 506.593C30.8724 508.825 29.3054 511.294 27.5421 513.617C25.8415 515.855 24.0291 518.466 20.8487 518.649C17.0768 518.865 15.597 516.107 15.9649 512.887C15.5125 513.318 15.0574 513.746 14.6022 514.176C17.1041 514.163 19.2489 516.54 20.7397 518.169C23.3069 520.976 25.3782 524.206 27.2532 527.456C29.1446 530.733 30.8342 534.13 32.2187 537.628C33.1753 540.051 34.2409 542.696 34.3417 545.312C34.7941 544.882 35.2493 544.451 35.7044 544.023C29.3517 544.201 22.9908 544.057 16.6462 543.792C12.948 543.636 6.10726 544.085 4.75004 539.778C3.70897 536.473 5.03083 532.367 5.30882 529.021C5.73942 523.829 4.13968 519.022 3.22942 513.963C2.74431 511.251 2.39546 508.307 3.2921 505.636C4.38223 502.391 6.94938 501.468 9.92272 500.089C15.2753 497.601 17.8153 492.66 20.6578 487.976C27.0351 477.472 36.0233 468.203 45.6056 460.243C55.5394 451.989 66.7133 444.949 78.7784 439.804C90.113 434.968 101.219 429.95 111.556 423.358C122.008 416.696 131.421 408.81 140.008 400.103C150.089 389.887 160.037 379.545 169.671 368.951C173.53 364.708 177.106 360.576 178.7 355.08C180.043 350.44 180.583 345.94 183.42 341.797C186.601 337.152 190.994 332.675 195.265 328.899C199.009 325.586 203.509 322.702 208.785 322.452C215.462 322.135 221.215 325.725 226.532 329.082C232.588 332.907 238.515 336.92 244.71 340.547C256.53 347.466 269.056 351.304 282.538 354.199C293.377 356.526 304.114 359.218 314.934 361.623C324.415 363.729 333.927 365.881 343.087 369.054C351.827 372.08 360.534 376.135 367.146 382.466C375.117 390.099 377.241 399.956 379.268 410.179C382.034 424.135 383.462 438.278 385.073 452.381C385.806 458.782 386.766 465.166 387.297 471.585C387.779 477.449 388.044 483.331 388.766 489.175C390.06 499.635 392.813 511.284 401.924 518.241C410.293 524.629 421.462 525.358 431.652 526.992C434.192 527.4 436.773 527.853 439.026 529.104C441.354 530.392 443.055 532.395 444.641 534.414C444.91 533.783 445.183 533.153 445.456 532.522C434.849 536.536 423.743 536.05 412.555 535.814C403.147 535.612 393.751 536.389 384.343 535.958C379.268 535.723 368.56 535.806 366.955 529.596C365.868 525.394 368.247 520.502 369.124 516.43C370.356 510.699 370.152 504.969 366.296 500.141C366.225 500.661 366.154 501.182 366.083 501.702C368.607 498.772 372.618 499.396 376.156 498.749C379.704 498.097 381.855 496.021 382.727 492.722C382.923 491.985 382.47 491.41 381.775 491.137C377.856 489.608 374.286 489.92 370.302 490.929C369.1 491.23 367.737 491.672 366.508 491.251C363.984 490.382 362.679 486.705 361.766 484.643C356.566 472.881 353.358 460.259 349.385 448.091C347.597 442.622 346.823 436.749 346.09 431.089C345.092 423.41 344.422 415.595 344.877 407.859C345.052 404.899 345.261 395.285 350.017 394.97C352.279 394.821 355.212 398.958 356.637 400.456C357.872 401.755 359.057 402.606 358.787 404.479C358.452 406.808 355.699 406.56 353.748 406.766C351.219 407.034 348.753 407.629 346.237 407.988C342.195 408.563 338.099 408.81 334.014 408.887C327.094 409.019 320.169 408.619 313.285 407.978C304.954 407.201 296.674 406.5 288.321 405.954C277.736 405.263 267.066 404.371 256.74 401.966C248.488 400.046 238.404 396.983 234.19 389.338C233.378 387.866 231.026 389.167 231.838 390.64C235.807 397.842 244.552 401.35 252.371 403.526C262.512 406.346 273.174 407.421 283.677 408.209C292.613 408.877 301.531 409.354 310.445 410.274C318.267 411.081 326.143 411.615 334.014 411.465C341.329 411.329 348.292 409.939 355.511 409.176C359.504 408.753 362.853 406.418 361.341 402.036C360.946 400.896 359.741 399.886 358.926 399.015C357.433 397.424 355.893 395.859 354.266 394.393C352.405 392.718 350.442 391.738 347.902 392.888C345.588 393.934 344.4 396.345 343.664 398.538C341.258 405.699 341.836 413.94 342.367 421.324C342.937 429.209 343.961 437.154 345.722 444.887C346.798 449.613 348.627 454.149 350.074 458.779C352.59 466.839 354.884 474.988 358.084 482.839C359.676 486.74 361.771 493.658 367.211 493.982C369.108 494.096 370.948 493.382 372.76 492.97C375.662 492.315 378.29 492.544 381.05 493.624C380.734 493.096 380.415 492.568 380.099 492.039C379.023 496.104 375.75 496.241 371.975 496.62C368.972 496.921 366.146 497.568 364.156 499.88C363.807 500.283 363.559 500.963 363.941 501.44C367.844 506.327 367.476 511.895 366.067 517.563C365.028 521.752 363.011 526.637 364.527 530.934C366.418 536.296 373.403 537.556 378.551 538.123C388.406 539.208 398.321 538.378 408.2 538.352C421.075 538.317 433.914 539.649 446.178 535.007C446.903 534.733 447.573 533.852 446.993 533.114C444.041 529.353 440.872 526.43 435.977 525.194C430.294 523.758 424.299 523.464 418.546 522.283C413.07 521.162 407.595 519.429 403.254 515.952C398.266 511.954 395.41 506.195 393.693 500.337C390.265 488.647 390.788 476.294 389.243 464.334C387.376 449.872 386.101 435.345 383.888 420.923C382.819 413.96 381.527 407.026 379.824 400.175C378.652 395.463 377.118 390.972 374.343 386.861C369.498 379.687 362.088 374.501 354.13 370.732C336.396 362.331 316.09 359.37 297.026 354.753C282.919 351.335 268.26 349.373 255.105 343.148C248.294 339.923 241.947 335.887 235.665 331.84C229.923 328.141 224.216 323.79 217.691 321.395C207.302 317.577 198.404 322.011 191.16 329.11C187.151 333.041 182.75 337.387 179.989 342.215C177.672 346.259 177.25 350.67 175.887 355.003C173.797 361.651 168.21 366.662 163.503 371.753C158.393 377.28 153.207 382.742 147.969 388.16C138.316 398.141 128.696 408.111 117.268 416.332C107.255 423.536 96.2968 429.442 84.8886 434.427C78.8138 437.079 72.69 439.518 66.8714 442.673C61.2054 445.743 55.7928 449.213 50.6311 452.995C40.054 460.751 30.5181 469.863 22.7591 480.192C21.0012 482.53 19.347 484.927 17.8589 487.424C16.1638 490.268 14.5776 493.302 12.073 495.603C9.89278 497.607 7.02842 498.231 4.54019 499.762C2.5507 500.989 1.35162 502.821 0.664839 504.951C-1.00852 510.149 0.874626 515.764 1.96203 520.886C2.97586 525.647 2.43356 529.962 1.93755 534.725C1.62959 537.664 1.4743 541.059 3.83716 543.332C7.00673 546.382 12.5065 546.194 16.6462 546.369C22.9908 546.635 29.3517 546.779 35.7044 546.601C36.4184 546.581 37.0943 546.027 37.0671 545.312C36.9499 542.268 35.7835 539.249 34.6443 536.437C33.0582 532.527 31.1558 528.722 28.9756 525.08C26.2421 520.509 21.2221 511.562 14.6022 511.598C13.8092 511.604 13.3213 512.188 13.2396 512.887C12.5828 518.623 17.4965 522.704 23.4487 520.754C26.005 519.917 27.7002 517.73 29.2564 515.751C31.2922 513.158 32.9763 510.266 35.2166 507.819C41.4494 501.015 49.4482 495.184 57.1555 489.972C65.0072 484.661 73.3058 479.926 81.9669 475.897C92.484 471.005 105.419 468.45 114.066 460.586C117.729 457.253 119.557 452.853 117.606 448.197C116.192 444.816 112.856 443.359 109.351 445.073C102.718 448.314 99.0575 460.671 108.923 462.506C113.458 463.349 119.209 459.988 123.021 458.114C127.739 455.794 132.285 453.18 136.798 450.525C154 440.405 170.134 428.785 185.906 416.78C193.618 410.908 201.413 405.088 208.493 398.525C214.704 392.764 220.414 386.539 225.698 380.004C236.752 366.332 246.125 351.327 254.75 336.193C259.185 328.414 261.716 320.031 263.548 311.406C264.935 304.867 264.981 298.162 266.21 291.599C266.75 288.712 267.39 285.377 269.372 283.018C268.729 283.018 268.088 283.018 267.445 283.018C279.327 296.053 267.663 314.244 268.84 329.076C269.304 334.92 272.37 344.424 266.486 348.693C260.068 353.351 251.562 345.932 245.74 343.326C234.885 338.47 223.199 334.433 213.445 327.674C211.734 326.486 209.586 325.004 208.665 323.122C207.695 321.15 209.507 319.194 210.72 317.678C214.993 312.337 220.21 308.145 222.649 301.704C225.707 293.628 224.682 285.17 223.657 276.824C222.709 269.078 221.403 260.958 217.53 253.972C216.424 251.977 212.347 246.1 210.251 250.701C208.583 254.364 210.183 259.932 211.314 263.515C213.192 269.462 216.724 274.354 222.842 277.04C230.476 280.389 239.112 279.381 247.242 278.999C254.153 278.677 261.294 279.835 268.137 278.682C271.062 278.19 273.577 276.777 275.06 274.251C276.692 271.472 275.904 268.371 274.891 265.541C273.457 261.538 272.122 257.785 272.269 253.488C272.394 249.82 273.326 246.25 273.85 242.628C274.831 235.846 273.179 229.402 267.9 224.483C263.82 220.679 259.005 217.56 254.617 214.088C250.24 210.621 244.833 206.612 242.53 201.503C241.663 199.583 241.606 197.76 242.939 196.039C242.227 196.126 241.513 196.211 240.799 196.299C251.167 204.844 258.691 189.79 260.356 181.773C260.792 179.686 261.01 177.649 260.555 175.551C259.724 171.726 257.691 168.259 256.628 164.498C254.249 156.094 259.223 147.088 254.399 139.151C247.422 127.673 229.849 124.682 217.07 124.538C209.889 124.456 200.898 124.551 195.859 130.237C193.466 132.936 190.76 139.914 194.134 142.83C197.954 146.132 202.732 140.595 202.95 137.192C203.231 132.764 200.53 127.928 196.717 125.42C191.923 122.265 186.753 124.249 183.458 128.338C180.894 131.519 179.316 135.367 179.839 139.401C180.392 143.652 182.821 147.426 185.053 151.058C186.71 153.754 188.162 156.319 188.895 159.381C189.648 162.523 190.108 165.691 191.097 168.784C192.765 174.002 195.401 180.276 200.59 183.23C205.852 186.225 212.271 183.428 215.696 179.139C219.817 173.979 220.365 166.727 220.708 160.505C221.106 153.303 221.06 146.302 222.393 139.177C224.131 129.864 225.333 120.378 222.166 111.204C218.217 99.7586 206.834 91.492 204.193 79.5263C203.694 77.2682 203.759 74.9534 205.643 73.2985C205.095 73.3655 204.544 73.4325 203.994 73.4995C207.733 76.0798 209.771 80.547 211.761 84.3594C213.794 88.2595 215.936 91.8425 218.711 95.3173C221.199 98.4337 223.883 101.468 225.9 104.891C228.339 109.028 229.312 113.557 229.893 118.218C232.855 142.056 233.109 165.887 233.613 189.842C233.752 196.428 234.624 203.171 233.128 209.68C232.413 212.788 231.029 216.263 227.443 217.181C224.028 218.055 223.513 214.781 225.137 212.647C228.644 208.043 236.913 209.327 239.197 214.245C241.434 219.063 240.189 225.169 238.235 229.871C236.145 234.91 232.302 240.099 226.551 241.677C222.343 242.832 217.566 242.819 214.037 240.086C210.624 237.444 208.97 233.219 207.94 229.296C206.531 223.945 206.171 218.372 206.111 212.876C205.983 201.078 207.417 189.3 208.992 177.616C209.589 173.182 210.262 168.753 210.731 164.307C211.622 155.904 211.265 147.304 210.45 138.911C208.346 117.305 201.653 96.5081 194.041 76.1365C192.267 71.3884 190.719 66.4753 187.871 62.1783C186.225 59.6934 183.499 57.2136 182.853 54.2622C181.891 49.8852 185.57 45.632 187.364 41.8918C189.438 37.5638 190.803 32.9832 192.337 28.4696C193.984 23.6261 195.905 18.9218 199.064 14.7614C198.35 14.849 197.638 14.9367 196.924 15.0217C199.868 18.1407 198.031 22.6002 197.172 26.1652C196.39 29.4053 195.957 32.5553 197.404 35.6795C197.652 36.2105 198.401 36.3858 198.944 36.2723C202.064 35.6124 203.797 39.2522 205.016 41.3711C206.395 43.7709 207.883 46.0212 209.515 48.2767C210.687 49.8981 212.238 51.7386 212.314 53.7878C212.434 56.8837 209.529 59.946 207.64 62.1654C206.553 63.4465 208.469 65.2818 209.57 63.9878Z" fill="#100F0D" fill-opacity="0.1"/>
</svg>
