<svg width="60" height="32" viewBox="0 0 60 32" fill="none" xmlns="http://www.w3.org/2000/svg">
<path fill-rule="evenodd" clip-rule="evenodd" d="M16.0882 5.52015C14.2115 3.67818 12.3623 1.8633 10.5264 0.0636997C6.90907 3.54179 3.45454 6.86696 0 10.1922C5.90187 16.2655 14.352 18.9504 22.5175 18.5144C21.1459 19.4746 19.8679 20.57 18.7097 21.8C22.1237 25.1308 25.5376 28.4616 29.1652 32L31.4622 29.7036C34.0588 27.1076 36.6968 24.4702 39.4725 21.694C42.9869 25.1859 46.3617 28.5379 49.649 31.8008C51.9826 29.5528 54.2827 27.3333 56.5862 25.1105L56.5967 25.1005C57.7288 24.0081 58.8616 22.9148 60 21.8169C54.2538 15.8287 45.8888 13.0792 37.7495 13.4778C39.148 12.5065 40.4452 11.3991 41.6128 10.1582C38.1628 6.82451 34.717 3.49506 31.104 0L30.1945 0.896035C27.1164 3.92828 24.007 6.9915 20.8064 10.1497C19.2094 8.58354 17.6393 7.04259 16.0882 5.52015Z" fill="white"/>
</svg>
